<svg width="1675" height="176" viewBox="0 0 1675 176" fill="none" xmlns="http://www.w3.org/2000/svg">
<path d="M35.215 135.69C28.5204 135.69 22.0649 134.793 15.8486 133C9.6322 131.087 4.43196 128.816 0.247869 126.186L1.32378 101.081H12.4415L16.0279 122.241C18.7774 123.795 21.5868 124.931 24.4558 125.648C27.4445 126.365 30.8515 126.724 34.677 126.724C43.1647 126.724 49.9191 124.871 54.94 121.165C59.9609 117.34 62.4713 111.96 62.4713 105.026C62.4713 99.2881 60.6782 94.865 57.0918 91.7568C53.625 88.529 48.0661 85.4209 40.4152 82.4322L33.4218 79.5631C24.2168 75.9768 16.7452 71.3743 11.007 65.7556C5.38833 60.0174 2.57901 52.6056 2.57901 43.5201C2.57901 36.5865 4.31242 30.669 7.77924 25.7676C11.3656 20.8662 16.2072 17.1006 22.304 14.4706C28.4009 11.721 35.2747 10.3462 42.9256 10.3462C48.9029 10.3462 54.3422 11.1831 59.2436 12.8567C64.145 14.5303 68.5084 16.8017 72.3339 19.6708L71.2579 43.1615H60.3195L56.5538 22.8985C52.1306 20.5076 47.2293 19.3122 41.8497 19.3122C35.0356 19.3122 29.2974 21.0456 24.6352 24.5124C19.9729 27.8597 17.6418 32.8806 17.6418 39.5751C17.6418 45.0742 19.3752 49.617 22.842 53.2033C26.4284 56.7897 31.4493 59.8381 37.9047 62.3486L45.0775 65.0383C56.7929 69.5811 65.1611 74.7215 70.182 80.4597C75.2029 86.0784 77.7134 93.1315 77.7134 101.619C77.7134 108.672 75.8604 114.769 72.1545 119.91C68.5682 124.931 63.607 128.816 57.2711 131.565C50.9352 134.315 43.5831 135.69 35.215 135.69ZM118.052 135.331C111.835 135.331 106.874 133.658 103.168 130.31C99.4623 126.963 97.6093 121.822 97.6093 114.889C97.6093 112.617 97.6093 110.406 97.6093 108.254C97.7289 105.983 97.7887 103.114 97.7887 99.6468V57.3276H82.9052V49.4376L98.8646 47.4651L103.527 23.4365H114.286L113.21 47.8238H137.418V57.3276H113.031V112.916C113.031 117.459 113.927 120.806 115.72 122.958C117.514 124.99 119.905 126.007 122.893 126.007C124.926 126.007 126.838 125.588 128.631 124.751C130.544 123.915 132.636 122.719 134.908 121.165L139.211 125.827C134.31 132.163 127.257 135.331 118.052 135.331ZM186.048 53.7413C182.701 53.7413 179.294 54.6976 175.827 56.6104C172.48 58.5231 169.551 61.5715 167.041 65.7556C164.65 69.9397 163.096 75.4986 162.378 82.4322H195.014C199.318 82.4322 202.127 81.5356 203.442 79.7424C204.877 77.9493 205.594 75.7377 205.594 73.1077C205.594 69.6408 204.697 66.4729 202.904 63.6038C201.231 60.6152 198.899 58.2242 195.911 56.4311C193.042 54.6379 189.754 53.7413 186.048 53.7413ZM185.869 135.331C173.795 135.331 164.112 131.446 156.819 123.675C149.527 115.785 145.881 104.967 145.881 91.2188C145.881 82.0138 147.734 74.0043 151.44 67.1902C155.265 60.3761 160.286 55.0563 166.503 51.2308C172.839 47.4054 179.712 45.4926 187.124 45.4926C193.341 45.4926 198.959 46.8674 203.98 49.617C209.001 52.3665 213.006 56.3115 215.994 61.452C218.983 66.4729 220.477 72.6295 220.477 79.9218C220.477 81.954 220.358 83.8668 220.119 85.66C219.88 87.3336 219.581 88.7681 219.222 89.9636H162.02C162.259 100.962 165.008 109.33 170.268 115.068C175.528 120.806 182.462 123.675 191.069 123.675C196.807 123.675 201.589 122.54 205.415 120.268C209.24 117.877 212.767 114.829 215.994 111.123L220.298 114.53C216.951 120.866 212.408 125.947 206.67 129.772C200.932 133.478 193.998 135.331 185.869 135.331ZM234.96 133V126.545L247.871 124.213C247.991 119.671 248.05 114.769 248.05 109.509C248.17 104.13 248.23 99.4077 248.23 95.3431V86.7359C248.23 81.8345 248.17 77.7699 248.05 74.5422C248.05 71.3145 247.931 67.9074 247.692 64.3211L233.526 62.7072V56.4311L258.63 45.4926L261.32 47.2858L263.293 68.4454C266.281 61.2727 270.107 55.654 274.769 51.5895C279.551 47.5249 284.333 45.4926 289.114 45.4926C291.864 45.4926 294.434 46.0904 296.825 47.2858C299.216 48.4813 300.949 50.0951 302.025 52.1274C302.025 60.8542 298.499 65.2177 291.445 65.2177C289.413 65.2177 287.5 64.859 285.707 64.1417C283.914 63.3049 282.181 62.1692 280.507 60.7347L278.355 58.7622C274.769 61.3922 271.78 64.6199 269.389 68.4454C266.998 72.2708 265.026 76.7538 263.472 81.8943V95.3431C263.472 99.2881 263.472 103.891 263.472 109.151C263.591 114.411 263.711 119.312 263.83 123.855L278.535 126.545V133H234.96ZM347.946 53.7413C344.599 53.7413 341.192 54.6976 337.725 56.6104C334.378 58.5231 331.449 61.5715 328.938 65.7556C326.548 69.9397 324.993 75.4986 324.276 82.4322H356.912C361.216 82.4322 364.025 81.5356 365.34 79.7424C366.775 77.9493 367.492 75.7377 367.492 73.1077C367.492 69.6408 366.595 66.4729 364.802 63.6038C363.128 60.6152 360.797 58.2242 357.809 56.4311C354.94 54.6379 351.652 53.7413 347.946 53.7413ZM347.767 135.331C335.693 135.331 326.01 131.446 318.717 123.675C311.425 115.785 307.779 104.967 307.779 91.2188C307.779 82.0138 309.632 74.0043 313.338 67.1902C317.163 60.3761 322.184 55.0563 328.4 51.2308C334.736 47.4054 341.61 45.4926 349.022 45.4926C355.238 45.4926 360.857 46.8674 365.878 49.617C370.899 52.3665 374.904 56.3115 377.892 61.452C380.881 66.4729 382.375 72.6295 382.375 79.9218C382.375 81.954 382.256 83.8668 382.017 85.66C381.778 87.3336 381.479 88.7681 381.12 89.9636H323.918C324.157 100.962 326.906 109.33 332.166 115.068C337.426 120.806 344.36 123.675 352.967 123.675C358.705 123.675 363.487 122.54 367.313 120.268C371.138 117.877 374.665 114.829 377.892 111.123L382.196 114.53C378.849 120.866 374.306 125.947 368.568 129.772C362.83 133.478 355.896 135.331 347.767 135.331ZM438.46 135.331C431.526 135.331 424.891 133.717 418.556 130.49C412.339 127.142 407.259 122.181 403.314 115.606C399.369 108.912 397.396 100.663 397.396 90.8602C397.396 80.9379 399.369 72.6295 403.314 65.9349C407.259 59.1208 412.339 54.0401 418.556 50.6929C424.891 47.226 431.526 45.4926 438.46 45.4926C445.394 45.4926 451.969 47.226 458.185 50.6929C464.521 54.0401 469.661 59.1208 473.606 65.9349C477.671 72.6295 479.703 80.9379 479.703 90.8602C479.703 100.663 477.671 108.912 473.606 115.606C469.661 122.181 464.521 127.142 458.185 130.49C451.969 133.717 445.394 135.331 438.46 135.331ZM438.46 127.262C446.23 127.262 452.208 124.213 456.392 118.117C460.576 111.9 462.668 102.815 462.668 90.8602C462.668 78.7861 460.576 69.5811 456.392 63.2452C452.208 56.9092 446.23 53.7413 438.46 53.7413C430.689 53.7413 424.712 56.9092 420.528 63.2452C416.464 69.5811 414.431 78.7861 414.431 90.8602C414.431 102.815 416.464 111.9 420.528 118.117C424.712 124.213 430.689 127.262 438.46 127.262ZM521.812 135.331C516.791 135.331 512.189 134.733 508.005 133.538C503.821 132.462 499.517 130.788 495.094 128.517L494.376 108.792H504.239L507.646 124.393C511.83 126.305 516.672 127.262 522.171 127.262C528.985 127.262 534.006 126.007 537.234 123.496C540.581 120.986 542.254 117.698 542.254 113.634C542.254 109.808 540.88 106.76 538.13 104.488C535.381 102.097 531.196 99.9456 525.578 98.0329L517.329 94.9845C510.754 92.5936 505.494 89.4854 501.549 85.66C497.604 81.8345 495.632 76.8734 495.632 70.7765C495.632 66.3533 496.827 62.229 499.218 58.4036C501.609 54.5781 505.136 51.4699 509.798 49.079C514.46 46.6881 520.139 45.4926 526.833 45.4926C531.734 45.4926 536.158 46.1501 540.103 47.4651C544.167 48.6606 548.112 50.4538 551.938 52.8447L551.22 71.1352H541.896L539.027 56.7897C534.962 54.7574 530.838 53.7413 526.654 53.7413C521.155 53.7413 516.971 54.877 514.101 57.1483C511.352 59.3002 509.977 62.229 509.977 65.9349C509.977 69.8799 511.173 72.8686 513.564 74.9009C516.074 76.9331 520.378 79.0849 526.474 81.3563L532.033 83.3288C540.999 86.6761 547.335 90.5015 551.041 94.8052C554.867 99.1088 556.779 104.07 556.779 109.689C556.779 114.231 555.464 118.475 552.834 122.42C550.204 126.246 546.319 129.354 541.179 131.745C536.038 134.136 529.583 135.331 521.812 135.331ZM609.785 135.331C597.471 135.331 587.669 131.326 580.376 123.317C573.084 115.307 569.438 104.429 569.438 90.6809C569.438 81.2368 571.351 73.1674 575.176 66.4729C579.121 59.6588 584.262 54.4586 590.598 50.8722C596.933 47.2858 603.688 45.4926 610.861 45.4926C616.24 45.4926 621.201 46.5088 625.744 48.541C630.287 50.5733 634.052 53.3826 637.041 56.969C640.03 60.4358 641.883 64.3808 642.6 68.804C641.763 73.3468 639.014 75.6181 634.351 75.6181C631.363 75.6181 629.091 74.8411 627.537 73.287C626.103 71.6133 625.086 69.5213 624.489 67.0108L621.261 55.1758C619.587 54.5781 617.914 54.2195 616.24 54.0999C614.686 53.8608 613.132 53.7413 611.578 53.7413C603.927 53.7413 597.591 56.7299 592.57 62.7072C587.669 68.6845 585.218 77.4113 585.218 88.8877C585.218 100.125 587.908 108.732 593.287 114.71C598.667 120.687 605.541 123.675 613.909 123.675C619.049 123.675 623.771 122.54 628.075 120.268C632.379 117.877 635.905 114.47 638.655 110.047L643.138 112.378C640.627 119.79 636.563 125.469 630.944 129.414C625.326 133.359 618.272 135.331 609.785 135.331ZM696.804 135.331C689.871 135.331 683.236 133.717 676.9 130.49C670.684 127.142 665.603 122.181 661.658 115.606C657.713 108.912 655.741 100.663 655.741 90.8602C655.741 80.9379 657.713 72.6295 661.658 65.9349C665.603 59.1208 670.684 54.0401 676.9 50.6929C683.236 47.226 689.871 45.4926 696.804 45.4926C703.738 45.4926 710.313 47.226 716.529 50.6929C722.865 54.0401 728.006 59.1208 731.951 65.9349C736.015 72.6295 738.048 80.9379 738.048 90.8602C738.048 100.663 736.015 108.912 731.951 115.606C728.006 122.181 722.865 127.142 716.529 130.49C710.313 133.717 703.738 135.331 696.804 135.331ZM696.804 127.262C704.575 127.262 710.552 124.213 714.736 118.117C718.92 111.9 721.012 102.815 721.012 90.8602C721.012 78.7861 718.92 69.5811 714.736 63.2452C710.552 56.9092 704.575 53.7413 696.804 53.7413C689.034 53.7413 683.057 56.9092 678.873 63.2452C674.808 69.5811 672.776 78.7861 672.776 90.8602C672.776 102.815 674.808 111.9 678.873 118.117C683.057 124.213 689.034 127.262 696.804 127.262ZM748.818 175.857V169.581L763.163 167.07C763.283 162.169 763.343 157.268 763.343 152.366C763.462 147.585 763.522 142.803 763.522 138.021V86.7359C763.522 81.8345 763.462 77.7699 763.343 74.5422C763.343 71.3145 763.223 67.9074 762.984 64.3211L748.818 62.7072V56.4311L773.923 45.4926L776.612 47.2858L777.688 58.9415C786.176 49.9756 795.202 45.4926 804.765 45.4926C811.221 45.4926 817.019 47.2858 822.159 50.8722C827.3 54.4586 831.364 59.599 834.353 66.2936C837.461 72.8686 839.015 80.8184 839.015 90.1429C839.015 99.3479 837.401 107.357 834.173 114.172C830.946 120.866 826.523 126.066 820.904 129.772C815.405 133.478 809.129 135.331 802.076 135.331C798.011 135.331 793.946 134.494 789.882 132.821C785.937 131.147 782.052 128.099 778.226 123.675V137.842C778.226 142.623 778.226 147.405 778.226 152.187C778.346 157.088 778.465 161.99 778.585 166.891L794.903 169.581V175.857H748.818ZM800.462 55.7138C797.712 55.7138 794.544 56.4311 790.958 57.8656C787.371 59.1806 783.307 61.7508 778.764 65.5763V115.965C782.111 119.192 785.399 121.524 788.627 122.958C791.854 124.393 795.142 125.11 798.489 125.11C805.184 125.11 810.922 122.42 815.704 117.041C820.486 111.661 822.876 103.173 822.876 91.5775C822.876 80.1011 820.784 71.2547 816.6 65.0383C812.416 58.822 807.037 55.7138 800.462 55.7138ZM851.569 133V126.545L865.018 124.034C865.137 119.491 865.197 114.59 865.197 109.33C865.317 103.95 865.376 99.2881 865.376 95.3431V86.9152C865.376 82.0138 865.317 77.9493 865.197 74.7215C865.197 71.3743 865.077 67.9074 864.838 64.3211L850.493 62.7072V56.4311L878.108 45.4926L880.798 47.2858L880.26 71.6731V95.3431C880.26 99.2881 880.26 103.95 880.26 109.33C880.379 114.59 880.499 119.491 880.618 124.034L893.171 126.545V133H851.569ZM872.728 25.7676C869.381 25.7676 866.512 24.6917 864.121 22.5399C861.85 20.3881 860.714 17.6385 860.714 14.2912C860.714 10.8244 861.85 8.07487 864.121 6.0426C866.512 3.89078 869.381 2.81487 872.728 2.81487C876.076 2.81487 878.885 3.89078 881.156 6.0426C883.547 8.07487 884.743 10.8244 884.743 14.2912C884.743 17.6385 883.547 20.3881 881.156 22.5399C878.885 24.6917 876.076 25.7676 872.728 25.7676ZM944.788 135.331C932.475 135.331 922.672 131.326 915.38 123.317C908.087 115.307 904.441 104.429 904.441 90.6809C904.441 81.2368 906.354 73.1674 910.179 66.4729C914.124 59.6588 919.265 54.4586 925.601 50.8722C931.937 47.2858 938.691 45.4926 945.864 45.4926C951.243 45.4926 956.204 46.5088 960.747 48.541C965.29 50.5733 969.055 53.3826 972.044 56.969C975.033 60.4358 976.886 64.3808 977.603 68.804C976.766 73.3468 974.017 75.6181 969.354 75.6181C966.366 75.6181 964.094 74.8411 962.54 73.287C961.106 71.6133 960.09 69.5213 959.492 67.0108L956.264 55.1758C954.59 54.5781 952.917 54.2195 951.243 54.0999C949.689 53.8608 948.135 53.7413 946.581 53.7413C938.93 53.7413 932.594 56.7299 927.573 62.7072C922.672 68.6845 920.221 77.4113 920.221 88.8877C920.221 100.125 922.911 108.732 928.29 114.71C933.67 120.687 940.544 123.675 948.912 123.675C954.053 123.675 958.775 122.54 963.078 120.268C967.382 117.877 970.908 114.47 973.658 110.047L978.141 112.378C975.63 119.79 971.566 125.469 965.947 129.414C960.329 133.359 953.275 135.331 944.788 135.331ZM1031.16 20.3881V13.036H1083.7V20.3881L1067.2 22.3606C1067.09 29.8919 1066.97 37.5429 1066.85 45.3133C1066.85 52.9642 1066.85 60.6749 1066.85 68.4454V96.4191C1066.85 105.505 1066.67 113.096 1066.31 119.192C1066.07 125.289 1065.53 130.37 1064.69 134.435C1063.86 138.499 1062.66 141.906 1061.11 144.656C1059.67 147.405 1057.7 150.035 1055.19 152.546C1052.2 155.534 1048.56 157.865 1044.25 159.539C1040.07 161.332 1035.53 162.229 1030.62 162.229C1027.28 162.229 1024.11 161.571 1021.12 160.256C1018.01 159.061 1015.98 156.79 1015.02 153.442C1015.62 150.095 1016.94 147.764 1018.97 146.449C1020.88 145.134 1023.27 144.476 1026.14 144.476C1030.21 144.476 1034.69 146.329 1039.59 150.035L1044.07 153.622C1046.7 151.111 1048.5 148.123 1049.45 144.656C1050.53 141.189 1051.07 136.885 1051.07 131.745C1051.07 129.593 1051.01 126.963 1050.89 123.855C1050.89 120.747 1050.83 116.682 1050.71 111.661C1050.59 106.64 1050.47 100.245 1050.35 92.474C1050.23 84.7036 1050.05 75.0802 1049.81 63.6038C1049.69 52.1274 1049.57 38.3797 1049.45 22.3606L1031.16 20.3881ZM1133.64 135.331C1126.71 135.331 1120.07 133.717 1113.74 130.49C1107.52 127.142 1102.44 122.181 1098.49 115.606C1094.55 108.912 1092.58 100.663 1092.58 90.8602C1092.58 80.9379 1094.55 72.6295 1098.49 65.9349C1102.44 59.1208 1107.52 54.0401 1113.74 50.6929C1120.07 47.226 1126.71 45.4926 1133.64 45.4926C1140.57 45.4926 1147.15 47.226 1153.37 50.6929C1159.7 54.0401 1164.84 59.1208 1168.79 65.9349C1172.85 72.6295 1174.88 80.9379 1174.88 90.8602C1174.88 100.663 1172.85 108.912 1168.79 115.606C1164.84 122.181 1159.7 127.142 1153.37 130.49C1147.15 133.717 1140.57 135.331 1133.64 135.331ZM1133.64 127.262C1141.41 127.262 1147.39 124.213 1151.57 118.117C1155.76 111.9 1157.85 102.815 1157.85 90.8602C1157.85 78.7861 1155.76 69.5811 1151.57 63.2452C1147.39 56.9092 1141.41 53.7413 1133.64 53.7413C1125.87 53.7413 1119.89 56.9092 1115.71 63.2452C1111.64 69.5811 1109.61 78.7861 1109.61 90.8602C1109.61 102.815 1111.64 111.9 1115.71 118.117C1119.89 124.213 1125.87 127.262 1133.64 127.262ZM1219.37 135.331C1212.07 135.331 1206.34 132.94 1202.15 128.158C1197.97 123.257 1195.94 114.889 1196.05 103.054L1196.59 58.4036L1183.86 55.7138V49.2583L1210.22 46.7479L1212.01 48.541L1211.12 73.6456V101.44C1211.12 109.21 1212.31 114.71 1214.7 117.937C1217.09 121.045 1220.68 122.6 1225.46 122.6C1233.83 122.6 1242.2 118.714 1250.57 110.944L1251.11 58.2242L1238.37 55.7138V49.2583L1264.38 46.7479L1266.17 48.541L1265.63 73.6456V124.034L1277.82 126.545V133L1252.9 134.435L1251.11 118.475C1246.32 124.333 1241.18 128.637 1235.68 131.386C1230.3 134.016 1224.87 135.331 1219.37 135.331ZM1289.66 133V126.545L1302.57 124.213C1302.69 119.671 1302.75 114.769 1302.75 109.509C1302.87 104.13 1302.93 99.4077 1302.93 95.3431V86.7359C1302.93 81.8345 1302.87 77.7699 1302.75 74.5422C1302.75 71.3145 1302.63 67.9074 1302.39 64.3211L1288.23 62.7072V56.4311L1313.33 45.4926L1316.02 47.2858L1317.99 68.4454C1320.98 61.2727 1324.81 55.654 1329.47 51.5895C1334.25 47.5249 1339.03 45.4926 1343.81 45.4926C1346.56 45.4926 1349.13 46.0904 1351.53 47.2858C1353.92 48.4813 1355.65 50.0951 1356.73 52.1274C1356.73 60.8542 1353.2 65.2177 1346.15 65.2177C1344.11 65.2177 1342.2 64.859 1340.41 64.1417C1338.61 63.3049 1336.88 62.1692 1335.21 60.7347L1333.06 58.7622C1329.47 61.3922 1326.48 64.6199 1324.09 68.4454C1321.7 72.2708 1319.73 76.7538 1318.17 81.8943V95.3431C1318.17 99.2881 1318.17 103.891 1318.17 109.151C1318.29 114.411 1318.41 119.312 1318.53 123.855L1333.23 126.545V133H1289.66ZM1363.33 133V126.545L1376.6 124.034C1376.72 119.491 1376.78 114.59 1376.78 109.33C1376.9 104.07 1376.96 99.4077 1376.96 95.3431V86.7359C1376.96 81.8345 1376.9 77.7699 1376.78 74.5422C1376.78 71.3145 1376.66 67.9074 1376.42 64.3211L1362.26 62.7072V56.4311L1387.36 45.4926L1390.05 47.2858L1391.49 61.6313C1395.91 56.8495 1400.99 52.9642 1406.73 49.9756C1412.47 46.987 1418.09 45.4926 1423.58 45.4926C1431.36 45.4926 1437.09 48.1226 1440.8 53.3826C1444.62 58.5231 1446.54 66.9511 1446.54 78.6665V95.3431C1446.54 99.4077 1446.54 104.07 1446.54 109.33C1446.66 114.59 1446.78 119.491 1446.9 124.034L1459.45 126.545V133H1417.85V126.545L1431.12 124.034C1431.24 119.611 1431.3 114.769 1431.3 109.509C1431.41 104.13 1431.47 99.4077 1431.47 95.3431V80.1011C1431.47 71.8524 1430.28 66.174 1427.89 63.0658C1425.62 59.9577 1421.85 58.4036 1416.59 58.4036C1412.53 58.4036 1408.58 59.2404 1404.76 60.914C1400.93 62.5877 1396.75 65.3372 1392.2 69.1627V95.3431C1392.2 99.2881 1392.2 103.95 1392.2 109.33C1392.32 114.59 1392.44 119.491 1392.56 124.034L1404.94 126.545V133H1363.33ZM1537.71 134.793C1533.41 134.793 1529.82 133.538 1526.95 131.027C1524.08 128.517 1522.29 125.17 1521.57 120.986C1516.67 125.767 1512.37 129.354 1508.66 131.745C1504.96 134.136 1500.47 135.331 1495.21 135.331C1488.64 135.331 1482.96 133.478 1478.18 129.772C1473.51 125.947 1471.18 120.328 1471.18 112.916C1471.18 109.45 1471.96 106.222 1473.51 103.233C1475.19 100.245 1478.18 97.3156 1482.48 94.4466C1486.78 91.5775 1492.94 88.7084 1500.95 85.8393C1503.7 84.8829 1506.87 83.8668 1510.45 82.7909C1514.04 81.7149 1517.63 80.7586 1521.21 79.9218V75.4388C1521.21 66.712 1519.9 60.914 1517.27 58.0449C1514.64 55.1758 1510.34 53.7413 1504.36 53.7413C1503.04 53.7413 1501.55 53.8011 1499.87 53.9206C1498.32 54.0401 1496.59 54.339 1494.67 54.8172L1491.27 66.4729C1489.59 72.2111 1486.49 75.0802 1481.94 75.0802C1476.92 75.0802 1474.11 72.6295 1473.51 67.7281C1475.19 60.914 1479.13 55.5345 1485.35 51.5895C1491.69 47.5249 1499.4 45.4926 1508.48 45.4926C1517.93 45.4926 1524.92 47.8835 1529.46 52.6654C1534.01 57.3277 1536.28 65.3372 1536.28 76.694V114.889C1536.28 118.714 1536.87 121.464 1538.07 123.137C1539.27 124.692 1540.82 125.469 1542.73 125.469C1544.29 125.469 1545.6 125.11 1546.68 124.393C1547.75 123.675 1548.77 122.719 1549.73 121.524L1553.31 125.469C1551.16 128.935 1548.77 131.386 1546.14 132.821C1543.63 134.136 1540.82 134.793 1537.71 134.793ZM1487.14 110.227C1487.14 115.008 1488.52 118.415 1491.27 120.448C1494.02 122.48 1497.42 123.496 1501.49 123.496C1503.28 123.496 1504.96 123.257 1506.51 122.779C1508.18 122.301 1510.16 121.404 1512.43 120.089C1514.7 118.655 1517.63 116.622 1521.21 113.992V86.5565C1518.11 87.3934 1515.06 88.3497 1512.07 89.4256C1509.08 90.382 1506.63 91.2188 1504.72 91.9361C1499.58 93.9684 1495.75 96.0604 1493.24 98.2122C1490.73 100.364 1489.06 102.456 1488.22 104.488C1487.5 106.521 1487.14 108.433 1487.14 110.227ZM1557.04 133V126.545L1571.38 124.034C1571.5 119.133 1571.56 114.351 1571.56 109.689C1571.68 104.907 1571.74 100.125 1571.74 95.3431V16.6224L1557.04 14.8292V8.55306L1585.01 0.483728L1587.52 1.91828L1586.81 27.3815V95.3431C1586.81 100.125 1586.81 104.907 1586.81 109.689C1586.93 114.47 1587.05 119.252 1587.16 124.034L1601.51 126.545V133H1557.04ZM1640.04 135.331C1635.02 135.331 1630.41 134.733 1626.23 133.538C1622.05 132.462 1617.74 130.788 1613.32 128.517L1612.6 108.792H1622.46L1625.87 124.393C1630.06 126.305 1634.9 127.262 1640.4 127.262C1647.21 127.262 1652.23 126.007 1655.46 123.496C1658.81 120.986 1660.48 117.698 1660.48 113.634C1660.48 109.808 1659.1 106.76 1656.36 104.488C1653.61 102.097 1649.42 99.9456 1643.8 98.0329L1635.55 94.9845C1628.98 92.5936 1623.72 89.4854 1619.77 85.66C1615.83 81.8345 1613.86 76.8734 1613.86 70.7765C1613.86 66.3533 1615.05 62.229 1617.44 58.4036C1619.83 54.5781 1623.36 51.4699 1628.02 49.079C1632.69 46.6881 1638.36 45.4926 1645.06 45.4926C1649.96 45.4926 1654.38 46.1501 1658.33 47.4651C1662.39 48.6606 1666.34 50.4538 1670.16 52.8447L1669.45 71.1352H1660.12L1657.25 56.7897C1653.19 54.7574 1649.06 53.7413 1644.88 53.7413C1639.38 53.7413 1635.2 54.877 1632.33 57.1483C1629.58 59.3002 1628.2 62.229 1628.2 65.9349C1628.2 69.8799 1629.4 72.8686 1631.79 74.9009C1634.3 76.9331 1638.6 79.0849 1644.7 81.3563L1650.26 83.3288C1659.22 86.6761 1665.56 90.5015 1669.27 94.8052C1673.09 99.1088 1675 104.07 1675 109.689C1675 114.231 1673.69 118.475 1671.06 122.42C1668.43 126.246 1664.54 129.354 1659.4 131.745C1654.26 134.136 1647.81 135.331 1640.04 135.331Z" fill="#F4F4F4"/>
</svg>
